<?xml version="1.0" standalone="no"?>
<!DOCTYPE svg PUBLIC "-//W3C//DTD SVG 20010904//EN"
 "http://www.w3.org/TR/2001/REC-SVG-20010904/DTD/svg10.dtd">
<svg version="1.0" xmlns="http://www.w3.org/2000/svg"
 width="345.000000pt" height="46.000000pt" viewBox="0 0 345.000000 46.000000"
 preserveAspectRatio="xMidYMid meet">
<style type="text/css">
<![CDATA[
	.st0{fill:#FFFFFF;}
	.st1{fill-rule:evenodd;clip-rule:evenodd;fill:#FFFFFF;}
]]>
</style>
<g transform="translate(0.000000,46.000000) scale(0.100000,-0.100000)"
fill="#000000" stroke="none">
<path d="M281 340 c-64 -15 -111 -72 -95 -115 7 -18 58 -35 101 -35 23 0 32
-4 27 -11 -4 -8 -30 -10 -75 -7 -65 5 -68 4 -74 -19 -3 -13 -3 -28 0 -33 9
-15 171 -12 209 4 41 17 66 51 66 88 0 33 -28 48 -91 48 -21 0 -39 5 -39 10 0
11 13 14 89 14 50 1 55 3 61 27 7 25 5 27 -38 33 -55 7 -97 6 -141 -4z"/>
<path d="M1165 341 c-60 -15 -95 -53 -95 -100 0 -28 22 -41 79 -48 78 -9 62
-26 -19 -21 -67 3 -71 3 -77 -20 -10 -41 -18 -12 -23 86 l-5 97 -92 3 -91 3
-37 -61 c-34 -56 -59 -85 -35 -41 16 30 12 66 -9 85 -15 14 -37 16 -142 14
l-124 -3 -26 -95 c-38 -134 -39 -130 26 -130 49 0 55 2 61 24 5 21 13 24 69
29 40 3 78 13 101 26 l36 22 -26 -45 c-14 -24 -26 -47 -26 -50 0 -14 108 -5
120 9 17 20 90 20 90 0 0 -22 285 -21 341 1 38 16 69 55 69 88 0 24 -41 46
-87 46 -43 0 -57 12 -27 24 8 3 39 3 68 0 52 -6 53 -6 60 21 4 15 5 29 2 32
-8 9 -151 12 -181 4z m-516 -70 c25 -16 4 -41 -34 -41 -20 0 -34 3 -32 8 2 4
7 15 10 25 7 18 33 22 56 8z m271 -31 c0 -33 -3 -40 -20 -40 -24 0 -25 11 -5
50 21 40 25 38 25 -10z"/>
<path d="M1422 343 c-24 -3 -36 -11 -43 -29 -5 -14 -9 -27 -9 -30 0 -2 32 -4
71 -4 85 0 84 -16 -1 -22 -66 -5 -93 -23 -104 -69 -4 -19 0 -34 13 -50 18 -22
26 -24 119 -24 55 0 103 2 105 5 3 3 8 17 12 31 l7 26 -71 -5 c-45 -3 -71 -1
-71 6 0 15 26 22 79 22 38 0 54 5 74 26 l26 25 -6 -54 c-7 -73 12 -87 115 -87
89 0 134 19 155 63 13 28 47 144 47 161 0 3 -26 6 -58 6 l-58 0 -18 -74 c-18
-78 -38 -108 -58 -88 -9 9 -7 29 5 81 9 38 17 72 17 75 0 4 -25 6 -57 4 -56
-3 -56 -3 -69 -43 -12 -40 -12 -40 -13 -9 -1 17 -8 37 -16 44 -16 14 -135 22
-193 13z"/>
<path d="M2666 301 c-12 -5 -29 -36 -47 -86 -16 -43 -29 -83 -29 -87 0 -15 48
-8 54 7 7 19 55 19 62 0 5 -12 64 -23 64 -12 0 13 -64 165 -73 173 -7 7 -20 9
-31 5z m24 -103 c0 -5 -7 -8 -15 -8 -17 0 -18 2 -9 25 5 13 8 14 15 3 5 -7 9
-16 9 -20z"/>
<path d="M2030 210 c0 -89 0 -90 25 -90 25 0 25 1 25 90 0 89 0 90 -25 90 -25
0 -25 -1 -25 -90z"/>
<path d="M2110 210 c0 -89 0 -90 25 -90 23 0 25 4 25 46 l0 47 35 -47 c26 -33
43 -46 60 -46 25 0 25 1 25 90 0 89 0 90 -24 90 -23 0 -25 -5 -28 -47 l-3 -48
-34 48 c-24 33 -41 47 -58 47 -22 0 -23 -2 -23 -90z"/>
<path d="M2300 210 l0 -90 30 0 30 0 0 90 0 90 -30 0 -30 0 0 -90z"/>
<path d="M2377 293 c-14 -13 -6 -33 13 -33 18 0 20 -7 20 -70 l0 -70 30 0 30
0 0 70 c0 63 2 70 20 70 13 0 20 7 20 20 0 18 -7 20 -63 20 -35 0 -67 -3 -70
-7z"/>
<path d="M2520 210 c0 -89 0 -90 25 -90 24 0 25 2 25 68 0 37 3 77 6 90 6 19
3 22 -25 22 l-31 0 0 -90z"/>
<path d="M2780 210 l0 -90 65 0 c58 0 65 2 65 19 0 16 -8 20 -37 23 l-38 3 2
68 1 67 -29 0 -29 0 0 -90z"/>
<path d="M2930 298 c-1 -2 -2 -42 -4 -90 l-3 -88 28 0 29 0 0 90 c0 89 0 90
-25 90 -14 0 -25 -1 -25 -2z"/>
<path d="M3006 284 c-9 -23 -8 -24 24 -24 17 0 30 -2 30 -5 0 -2 -13 -26 -30
-52 -16 -26 -30 -55 -30 -65 0 -17 7 -19 63 -16 54 3 62 5 62 23 0 17 -6 19
-33 17 -32 -4 -33 -3 -21 20 6 12 20 35 30 50 11 14 19 36 19 47 0 19 -6 21
-54 21 -40 0 -55 -4 -60 -16z"/>
<path d="M3149 225 c-1 -41 -2 -81 -3 -87 -1 -7 11 -14 27 -16 24 -3 27 0 27
27 0 40 18 40 31 1 9 -24 17 -30 40 -30 34 0 34 1 14 40 -13 26 -13 32 2 58
16 28 16 31 0 56 -16 23 -24 26 -77 26 l-60 0 -1 -75z m91 15 c0 -13 -7 -20
-20 -20 -13 0 -20 7 -20 20 0 13 7 20 20 20 13 0 20 -7 20 -20z"/>
</g>
</svg>
