<?xml version="1.0" encoding="utf-8"?>
<!-- Generator: Adobe Illustrator 14.0.0, SVG Export Plug-In . SVG Version: 6.00 Build 43363)  -->
<!DOCTYPE svg PUBLIC "-//W3C//DTD SVG 1.1//EN" "http://www.w3.org/Graphics/SVG/1.1/DTD/svg11.dtd">
<svg version="1.1" id="Layer_1" xmlns="http://www.w3.org/2000/svg" xmlns:xlink="http://www.w3.org/1999/xlink" x="0px" y="0px"
	 width="118.998px" height="40px" viewBox="0 0 118.998 40" style="enable-background:new 0 0 118.998 40;" xml:space="preserve">
<style type="text/css">
<![CDATA[
	.st0{fill:#FFFFFF;}
	.st1{fill-rule:evenodd;clip-rule:evenodd;fill:#FFFFFF;}
]]>
</style>
<g>
	<polygon class="st0" points="93.57,29.58 93.57,18.46 90.28,18.46 90.28,16.17 99.37,16.17 99.37,18.46 96.08,18.46 96.08,29.58 	
		"/>
	<path class="st1" d="M41.36,27.32h-1.65v-3.6h1.41c1.14,0,2.55,0.32,2.55,1.82C43.67,26.85,42.53,27.29,41.36,27.32z M39.71,18.34
		h1.34c1.01,0,2.27,0.32,2.27,1.62c0,1.31-1.14,1.75-2.31,1.79h-1.3V18.34z M44.22,22.62c0.98-0.48,1.61-1.71,1.61-2.85
		c0-0.52-0.08-0.99-0.28-1.43c-0.74-1.66-2.7-2.13-4.46-2.17h-3.84V29.5h4.07c1.45,0,2.7-0.36,3.57-1.07
		c0.82-0.67,1.29-1.66,1.29-2.81c0-0.75-0.2-1.54-0.79-2.17C45.08,23.13,44.69,22.81,44.22,22.62z"/>
	<path class="st1" d="M51.04,23.41l1.44-4.55l1.45,4.55H51.04z M53.93,16.17h-2.86L46.53,29.5h2.55l1.29-3.96h4.27l1.25,3.96h2.71
		L53.93,16.17z"/>
	<polygon class="st0" points="68.27,29.58 62.08,21.03 62.08,29.5 59.65,29.5 59.65,16.17 61.69,16.17 67.56,24.28 67.56,16.17 
		69.99,16.17 69.99,29.58 	"/>
	<path class="st0" d="M85.66,29.74c-1.41-0.04-2.78-0.44-3.84-1.35l-0.27-0.27l1.6-1.71l0.28,0.28c0.63,0.56,1.53,0.71,2.27,0.71
		c1.14,0,1.84-0.51,1.92-1.42c0.08-1.11-1.29-1.7-2.08-2.06c-1.05-0.47-2.03-0.95-2.74-1.66c-0.82-0.75-1.1-1.78-1.06-2.81
		c0.2-2.29,2.2-3.52,4.2-3.52c0.86,0,1.64,0.12,2.38,0.47v2.46c-1.05-0.52-1.72-0.68-2.35-0.68h-0.03c-0.98,0-1.61,0.52-1.69,1.31
		c-0.08,1.11,1.37,1.7,2.15,2.06c1.18,0.55,2.04,1.03,2.67,1.66c0.82,0.79,1.09,1.82,1.02,2.81C89.89,28.47,87.89,29.74,85.66,29.74
		z"/>
	<polygon class="st0" points="72.62,29.5 72.62,16.17 80.22,16.17 80.22,18.46 75.12,18.46 75.12,21.59 79.08,21.59 79.08,23.84 
		75.12,23.84 75.12,27.21 80.22,27.21 80.22,29.5 	"/>
	<path class="st0" d="M112.22,27.96c1.33-0.12,2.42-0.4,3.21-0.79c0.51-0.28,0.94-0.76,0.86-1.47c-0.12-0.99-1.21-1.42-2-1.78
		c-0.98-0.43-1.99-0.91-2.74-1.62c-0.82-0.83-1.1-1.82-1.06-2.85c0.16-2.25,2.12-3.52,4.19-3.52c1.45,0,2.71,0.47,3.69,1.46
		l-1.61,1.67c0,0-0.94-0.88-2.08-0.88c-0.97,0-1.64,0.52-1.68,1.31c-0.08,1.11,1.37,1.7,2.15,2.06c1.18,0.55,2.04,1.03,2.71,1.62
		c0.66,0.67,1.21,1.62,1.13,2.81c-0.19,2.49-2.46,3.64-4.54,4.07c-1.06,0.2-2.27,0.32-3.88,0.32V28
		C111.28,28,112.1,27.96,112.22,27.96z"/>
	<path class="st0" d="M103.68,27.21v-3.37h3.95v-2.25h-3.95v-3.13h5.13v-2.29h-7.6v12.97c2.59,0.76,5.01,1.15,7.99,1.23v-2.33
		C107.32,27.96,105.48,27.68,103.68,27.21z"/>
	<path class="st1" d="M27.03,30.85c-0.79,0.74-1.74,1.29-3.09,1.77L7.91,38.26V24.31l11.81-6.89h0.01c0.24-0.15,0.45-0.29,0.65-0.44
		l0.11-0.07c2.81,0.12,4.95,0.89,6.54,2.34c1.68,1.6,2.49,3.5,2.49,5.8S28.71,29.25,27.03,30.85z M18,16.9L7.91,22.78V16.9H18z
		 M6.6,36.75l-5.05-8.73l5.05-2.95V36.75z M13.07,1.32c3.26,0,5.67,0.77,7.37,2.35c1.65,1.55,2.49,3.5,2.49,5.8
		c0,2.47-1.01,4.63-2.85,6.1h-0.42H6.6v7.97l-5.29,3.1V1.32H13.07z M27.92,18.28l-0.01-0.01c-1.54-1.4-3.56-2.26-6.04-2.57
		c1.52-1.66,2.37-3.85,2.37-6.23c0-2.68-0.98-4.96-2.92-6.77C19.38,0.88,16.68,0,13.07,0H0v27.96L6.96,40l17.42-6.13
		c1.5-0.54,2.63-1.19,3.54-2.05c1.94-1.84,2.91-4.12,2.91-6.77S29.86,20.12,27.92,18.28z"/>
</g>
</svg>
