<svg width="14" height="18" viewBox="0 0 14 18" fill="none" xmlns="http://www.w3.org/2000/svg">
<path fill-rule="evenodd" clip-rule="evenodd" d="M9.53434 1.01068L10.1841 1.6604H12.4718C12.9751 1.6604 13.3869 2.0722 13.3869 2.57551C13.3869 3.07882 12.9751 3.49061 12.4718 3.49061H1.49057C0.987259 3.49061 0.575462 3.07882 0.575462 2.57551C0.575462 2.0722 0.987259 1.6604 1.49057 1.6604H3.77833L4.42805 1.01068C4.59277 0.845962 4.8307 0.7453 5.06863 0.7453H8.89376C9.13169 0.7453 9.36962 0.845962 9.53434 1.01068ZM1.49059 15.3869C1.49059 16.3935 2.31419 17.2171 3.3208 17.2171H10.6416C11.6483 17.2171 12.4718 16.3935 12.4718 15.3869V6.23588C12.4718 5.22926 11.6483 4.40567 10.6416 4.40567H3.3208C2.31419 4.40567 1.49059 5.22926 1.49059 6.23588V15.3869ZM4.39142 8.2216C4.74831 7.86471 5.32483 7.86471 5.68172 8.2216L6.98117 9.52105L8.28062 8.2216C8.63751 7.86471 9.21402 7.86471 9.57091 8.2216C9.9278 8.57849 9.9278 9.15501 9.57091 9.5119L8.27146 10.8113L9.57091 12.1108C9.9278 12.4677 9.9278 13.0442 9.57091 13.4011C9.21402 13.758 8.63751 13.758 8.28062 13.4011L6.98117 12.1016L5.68172 13.4011C5.32483 13.758 4.74831 13.758 4.39142 13.4011C4.22007 13.2301 4.12377 12.998 4.12377 12.7559C4.12377 12.5139 4.22007 12.2818 4.39142 12.1108L5.69087 10.8113L4.39142 9.5119C4.03453 9.16416 4.03453 8.57849 4.39142 8.2216Z" fill="#2196F3"/>
</svg>
