<svg width="14" height="17" viewBox="0 0 14 17" fill="none" xmlns="http://www.w3.org/2000/svg">
<path fill-rule="evenodd" clip-rule="evenodd" d="M9.89711 0.562011L10.5468 1.21174H12.8346C13.3379 1.21174 13.7497 1.62353 13.7497 2.12684C13.7497 2.63015 13.3379 3.04194 12.8346 3.04194H1.85334C1.35003 3.04194 0.938232 2.63015 0.938232 2.12684C0.938232 1.62353 1.35003 1.21174 1.85334 1.21174H4.1411L4.79082 0.562011C4.95554 0.397292 5.19347 0.296631 5.4314 0.296631H9.25653C9.49446 0.296631 9.73239 0.397292 9.89711 0.562011ZM1.85336 14.9383C1.85336 15.9449 2.67696 16.7685 3.68357 16.7685H11.0044C12.011 16.7685 12.8346 15.9449 12.8346 14.9383V5.78721C12.8346 4.7806 12.011 3.957 11.0044 3.957H3.68357C2.67696 3.957 1.85336 4.7806 1.85336 5.78721V14.9383ZM4.75419 7.77293C5.11108 7.41604 5.6876 7.41604 6.04449 7.77293L7.34394 9.07238L8.64339 7.77293C9.00028 7.41604 9.57679 7.41604 9.93368 7.77293C10.2906 8.12983 10.2906 8.70634 9.93368 9.06323L8.63423 10.3627L9.93368 11.6621C10.2906 12.019 10.2906 12.5955 9.93368 12.9524C9.57679 13.3093 9.00028 13.3093 8.64339 12.9524L7.34394 11.653L6.04449 12.9524C5.6876 13.3093 5.11108 13.3093 4.75419 12.9524C4.58284 12.7815 4.48654 12.5493 4.48654 12.3073C4.48654 12.0652 4.58284 11.8331 4.75419 11.6621L6.05364 10.3627L4.75419 9.06323C4.3973 8.71549 4.3973 8.12983 4.75419 7.77293Z" fill="#D32F2F"/>
</svg>
