<?xml version="1.0" encoding="utf-8"?>
<!-- Generator: Adobe Illustrator 24.1.2, SVG Export Plug-In . SVG Version: 6.00 Build 0)  -->
<svg version="1.1" id="Camada_1" xmlns="http://www.w3.org/2000/svg" xmlns:xlink="http://www.w3.org/1999/xlink" x="0px" y="0px"
	 viewBox="0 0 337 235.75" style="enable-background:new 0 0 337 235.75;" xml:space="preserve">
<style type="text/css">
	.st0{fill:none;stroke:#000000;stroke-width:14;stroke-miterlimit:10;}
</style>
<path class="st0" d="M301,227.75H36c-15.46,0-28-12.54-28-28V36C8,20.54,20.54,8,36,8h265c15.46,0,28,12.54,28,28v163.75
	C329,215.21,316.46,227.75,301,227.75z"/>
<rect x="8" y="53.75" width="318" height="40"/>
<path d="M92.37,195.88h-49.5c-4.97,0-9-4.03-9-9v-20.25c0-4.97,4.03-9,9-9h49.5c4.97,0,9,4.03,9,9v20.25
	C101.37,191.85,97.34,195.88,92.37,195.88z"/>
</svg>
