<?xml version="1.0" encoding="utf-8"?>
<!-- Generator: Adobe Illustrator 24.1.2, SVG Export Plug-In . SVG Version: 6.00 Build 0)  -->
<svg version="1.1" id="Camada_1" xmlns="http://www.w3.org/2000/svg" xmlns:xlink="http://www.w3.org/1999/xlink" x="0px" y="0px"
	 viewBox="0 0 63 60" style="enable-background:new 0 0 63 60;" xml:space="preserve">
<style type="text/css">
	.st0{fill:#FFFFFF;}
	.st1{fill:#FFFFFF;stroke:#000000;stroke-width:3;stroke-miterlimit:10;}
</style>
<path class="st0" d="M45.27,22.67"/>
<path class="st1" d="M6.43,14.31C19.54,10.7,32.65,7.1,45.76,3.49c0.14-0.05,3.41-1.15,5.9,0.98c1.7,1.46,1.93,3.47,1.97,3.93
	c0,8.85,0,17.7,0,26.55c-5.54,5.69-20.92,19.92-39.33,17.7c-1.58-0.19-3.22-0.51-4.92-0.98c0.98-6.88,1.97-13.76,2.95-20.65
	c-1.23-0.9-3.43-2.77-4.92-5.9C5.1,20.26,6.08,15.69,6.43,14.31z"/>
<path class="st1" d="M6.27,14.31h50.95c2.08,0,3.77,1.63,3.77,3.64v35.49c0,2.01-1.69,3.64-3.77,3.64H6.27
	c-2.08,0-3.77-1.63-3.77-3.64V17.95C2.5,15.94,4.19,14.31,6.27,14.31z"/>
</svg>
